<svg width="48" height="48" viewBox="0 0 48 48" fill="none" xmlns="http://www.w3.org/2000/svg">
<path fill-rule="evenodd" clip-rule="evenodd" d="M24 0C20.0407 0.0124155 16.2164 1.44041 13.218 4.026C10.92 6.006 9.255 8.586 8.826 11.175C3.798 12.285 0 16.665 0 21.954C0 28.098 5.124 33 11.343 33H22.5V17.121L16.062 23.562C15.7803 23.8437 15.3983 24.0019 15 24.0019C14.6017 24.0019 14.2197 23.8437 13.938 23.562C13.6563 23.2803 13.4981 22.8983 13.4981 22.5C13.4981 22.1017 13.6563 21.7197 13.938 21.438L22.938 12.438C23.0773 12.2983 23.2429 12.1875 23.4251 12.1119C23.6073 12.0362 23.8027 11.9973 24 11.9973C24.1973 11.9973 24.3927 12.0362 24.5749 12.1119C24.7571 12.1875 24.9227 12.2983 25.062 12.438L34.062 21.438C34.3437 21.7197 34.5019 22.1017 34.5019 22.5C34.5019 22.8983 34.3437 23.2803 34.062 23.562C33.7803 23.8437 33.3983 24.0019 33 24.0019C32.6017 24.0019 32.2197 23.8437 31.938 23.562L25.5 17.121V33H38.064C43.506 33 48 28.71 48 23.319C48 18.411 44.274 14.412 39.498 13.737C38.769 5.997 32.07 0 24 0ZM22.5 43.5V33H25.5V43.5C25.5 43.8978 25.342 44.2794 25.0607 44.5607C24.7794 44.842 24.3978 45 24 45C23.6022 45 23.2206 44.842 22.9393 44.5607C22.658 44.2794 22.5 43.8978 22.5 43.5Z" fill="#00B3A8"/>
</svg>
