<svg width="35" height="35" viewBox="0 0 35 35" fill="none" xmlns="http://www.w3.org/2000/svg">
<path d="M20.4167 2.91699H8.75001C7.97646 2.91699 7.2346 3.22428 6.68762 3.77126C6.14063 4.31824 5.83334 5.06011 5.83334 5.83366V29.167C5.83334 29.9405 6.14063 30.6824 6.68762 31.2294C7.2346 31.7764 7.97646 32.0837 8.75001 32.0837H26.25C27.0236 32.0837 27.7654 31.7764 28.3124 31.2294C28.8594 30.6824 29.1667 29.9405 29.1667 29.167V11.667L20.4167 2.91699ZM23.0417 29.167H20.4167L17.5 24.2087L14.5833 29.167H11.9583L16.1875 22.6045L11.9583 16.042H14.5833L17.5 21.0003L20.4167 16.042H23.0417L18.8125 22.6045L23.0417 29.167ZM18.9583 13.1253V5.10449L26.9792 13.1253H18.9583Z" fill="#787F95"/>
</svg>
