<svg width="35" height="35" viewBox="0 0 35 35" fill="none" xmlns="http://www.w3.org/2000/svg">
<path fill-rule="evenodd" clip-rule="evenodd" d="M17.5 2.91699C17.1132 2.91699 16.7423 3.07064 16.4688 3.34413C16.1953 3.61762 16.0417 3.98855 16.0417 4.37533V7.29199H7.29167C6.51812 7.29199 5.77625 7.59928 5.22927 8.14626C4.68229 8.69324 4.375 9.43511 4.375 10.2087V29.167C4.375 29.9405 4.68229 30.6824 5.22927 31.2294C5.77625 31.7764 6.51812 32.0837 7.29167 32.0837H27.7083C28.4819 32.0837 29.2237 31.7764 29.7707 31.2294C30.3177 30.6824 30.625 29.9405 30.625 29.167V10.2087C30.625 9.43511 30.3177 8.69324 29.7707 8.14626C29.2237 7.59928 28.4819 7.29199 27.7083 7.29199H18.9583V4.37533C18.9583 3.98855 18.8047 3.61762 18.5312 3.34413C18.2577 3.07064 17.8868 2.91699 17.5 2.91699ZM18.9583 7.29199V20.1662L21.6242 17.5003C21.8976 17.2267 22.2686 17.0729 22.6554 17.0727C23.0423 17.0726 23.4133 17.2261 23.687 17.4996C23.9606 17.773 24.1144 18.144 24.1146 18.5309C24.1147 18.9177 23.9612 19.2888 23.6877 19.5624L18.7877 24.461C18.4459 24.8025 17.9825 24.9943 17.4993 24.9943C17.0161 24.9943 16.5527 24.8025 16.2108 24.461L11.3123 19.5624C11.1769 19.4269 11.0695 19.2661 10.9963 19.0891C10.923 18.9121 10.8854 18.7224 10.8854 18.5309C10.8855 18.3393 10.9233 18.1496 10.9967 17.9727C11.07 17.7958 11.1775 17.635 11.313 17.4996C11.4485 17.3642 11.6094 17.2568 11.7863 17.1836C11.9633 17.1103 12.153 17.0727 12.3446 17.0727C12.5361 17.0728 12.7258 17.1106 12.9027 17.184C13.0797 17.2573 13.2404 17.3648 13.3758 17.5003L16.0417 20.1662V7.29199H18.9583Z" fill="#787F95"/>
</svg>
